<svg id="Layer_1" data-name="Layer 1" xmlns="http://www.w3.org/2000/svg" width="63" height="42" viewBox="0 0 63 42">
  <defs>
    <style>
      .cls-1 {
        fill: #221f1f;
      }

      .cls-2 {
        fill: #fafafa;
      }

      .cls-3 {
        fill: none;
      }
    </style>
  </defs>
  <title>J133-overview-lineart-03-L-crawford</title>
  <rect id="_Path_" data-name="&lt;Path&gt;" class="cls-1" width="63" height="38"/>
  <rect id="_Path_2" data-name="&lt;Path&gt;" class="cls-2" x="2.003" y="2.003" width="58.994" height="33.994"/>
  <g id="_Group_" data-name="&lt;Group&gt;">
    <path id="_Compound_Path_" data-name="&lt;Compound Path&gt;" class="cls-1" d="M23.957,23.677l.329-1.017a3.856,3.856,0,0,0,2.034.538,2.15,2.15,0,0,0,2.273-2.079c0-1.5-.912-2.228-2.767-2.228a9.449,9.449,0,0,0-1.3.089l.628-4.622h4.561v1.077H26.08l-.359,2.483a6.431,6.431,0,0,1,.748-.045c2.048,0,3.424,1.212,3.424,3.051a3.338,3.338,0,0,1-3.56,3.32A4.52,4.52,0,0,1,23.957,23.677Z"/>
    <path id="_Compound_Path_2" data-name="&lt;Compound Path&gt;" class="cls-1" d="M32.015,14H33.3v4.861h.045c.284-.4.568-.763.823-1.092L37.13,14h1.585l-3.56,4.292L39,24.08H37.474l-3.23-4.936L33.3,20.237V24.08H32.015Z"/>
  </g>
  <rect id="_Rectangle_" data-name="&lt;Rectangle&gt;" class="cls-1" x="22" y="40" width="19" height="2" rx="1" ry="1"/>
  <rect class="cls-3" width="63" height="42"/>
</svg>
