<svg xmlns="http://www.w3.org/2000/svg" width="237.25" height="165.25"><path stroke="#333" stroke-width=".5" fill="none" d="M227.992 77a5.254 5.254 0 0 1 5.258 5.25 5.254 5.254 0 0 1-5.258 5.25 5.254 5.254 0 0 1-5.258-5.25 5.254 5.254 0 0 1 5.258-5.25z"/><path stroke="#333" stroke-width=".5" fill="none" d="M228.008 78.047a4.255 4.255 0 0 1 4.258 4.25 4.255 4.255 0 0 1-4.258 4.25 4.254 4.254 0 0 1-4.258-4.25 4.254 4.254 0 0 1 4.258-4.25z"/><path fill-rule="evenodd" fill="#333" d="M11.537 163.912a99.08 99.08 0 0 1-1.542-.009c-.884-.01-1.78-.029-2.656-.172a9.287 9.287 0 0 1-2.11-.61 6.744 6.744 0 0 1-1.773-1.146 6.15 6.15 0 0 1-1.324-1.644 7.689 7.689 0 0 1-.766-1.971 12.59 12.59 0 0 1-.311-2.484c-.048-1.231-.032-2.467-.032-3.7V9.146a12.41 12.41 0 0 1 .34-2.499 7.51 7.51 0 0 1 .748-1.944 6.641 6.641 0 0 1 3.052-2.792 8.57 8.57 0 0 1 2.083-.626c.878-.154 1.781-.175 2.669-.186.558-.009 1.116-.011 1.674-.011l1.176.001h211.469l1.241-.001c.494 0 .989.001 1.484.009.886.01 1.783.029 2.662.166.724.115 1.459.306 2.128.608a7.149 7.149 0 0 1 1.778 1.14 6.495 6.495 0 0 1 1.329 1.64 7.26 7.26 0 0 1 .772 1.967c.197.817.282 1.639.316 2.477.051 1.241.032 2.488.032 3.729v139.352l-.077 4.561c-.119.998-.279 1.974-.679 2.904a6.709 6.709 0 0 1-2.046 2.653c-.897.692-1.956 1.127-3.06 1.352-.921.188-1.86.236-2.796.252-.656.012-1.312.014-1.968.014l-1.116-.001H12.765l-1.228.001m0 1h.616l.612-.001h211.469l.557.001h.559c.625 0 1.298-.002 1.986-.014.889-.015 1.939-.059 2.979-.272 1.329-.272 2.497-.79 3.47-1.541a7.701 7.701 0 0 0 2.353-3.048c.455-1.056.631-2.153.754-3.181l.006-.051.001-.051.077-4.561V12.824l.002-.785c.003-.975.006-1.984-.035-2.985-.042-1.024-.15-1.872-.342-2.669a8.305 8.305 0 0 0-.88-2.237 7.489 7.489 0 0 0-1.534-1.888 8.147 8.147 0 0 0-2.024-1.299c-.697-.315-1.499-.545-2.386-.685-.93-.146-1.858-.168-2.806-.179-.542-.008-1.084-.009-1.496-.009h-.622l-.619.001H12.765l-.587-.001h-.589c-.499 0-1.09.001-1.691.011C8.951.111 8.017.135 7.073.3a9.502 9.502 0 0 0-2.326.702A7.585 7.585 0 0 0 1.24 4.213a8.435 8.435 0 0 0-.85 2.203c-.211.872-.335 1.78-.366 2.695l-.001.017v143.048l-.001.735c-.003.982-.005 1.998.034 3.003.034.986.144 1.863.336 2.677.177.754.468 1.503.865 2.223.4.723.933 1.386 1.543 1.916a7.763 7.763 0 0 0 2.035 1.31c.751.318 1.537.545 2.341.678.928.151 1.857.174 2.807.185.557.008 1.099.009 1.554.009z"/><path stroke="#333" stroke-width=".5" fill="none" d="M9.047 81.25a1.25 1.25 0 1 1 0 2.5 1.25 1.25 0 0 1 0-2.5z"/></svg>