<svg xmlns="http://www.w3.org/2000/svg" width="288.25" height="208.25"><path fill-rule="evenodd" fill="#333" d="M13.778 206.303c-.615 0-1.23-.002-1.845-.01-1.058-.013-2.131-.035-3.178-.206a11.138 11.138 0 0 1-2.524-.729c-.778-.333-1.486-.814-2.121-1.369a7.34 7.34 0 0 1-1.584-1.964 9.211 9.211 0 0 1-.918-2.354c-.232-.979-.337-1.964-.371-2.969-.058-1.47-.039-2.946-.039-4.42V10.825c.035-1.008.169-2.002.407-2.984A8.965 8.965 0 0 1 2.5 5.518a7.92 7.92 0 0 1 3.651-3.336 10.239 10.239 0 0 1 2.493-.748c1.05-.184 2.13-.209 3.193-.222.668-.011 1.335-.013 2.003-.013l1.407.001h257.257l1.485-.002c.591 0 1.183.002 1.776.011 1.06.013 2.133.035 3.184.199.867.137 1.746.365 2.546.726a8.499 8.499 0 0 1 2.128 1.363 7.744 7.744 0 0 1 1.59 1.958c.426.732.727 1.53.924 2.351.235.976.337 1.958.378 2.959.06 1.482.038 2.972.038 4.455v177.062l-.092 5.45c-.143 1.191-.334 2.357-.813 3.469a8 8 0 0 1-2.448 3.168c-1.073.827-2.34 1.347-3.66 1.616-1.102.225-2.226.282-3.346.301-.784.014-1.569.017-2.354.017l-1.336-.001H15.247l-1.469.001m0 1.195l.736-.001H273.84c.748 0 1.553-.002 2.375-.016 1.064-.018 2.32-.071 3.565-.326 1.59-.324 2.987-.943 4.151-1.84a9.203 9.203 0 0 0 2.816-3.641c.544-1.262.755-2.572.902-3.8l.007-.061.001-.061.092-5.45V15.22l.002-.938a80.54 80.54 0 0 0-.041-3.566c-.05-1.223-.18-2.237-.41-3.19a9.842 9.842 0 0 0-1.053-2.671 8.923 8.923 0 0 0-1.834-2.255 9.71 9.71 0 0 0-2.422-1.553c-.834-.376-1.793-.651-2.855-.819-1.113-.174-2.223-.2-3.357-.213-.649-.01-1.297-.011-1.79-.011h-.744l-.741.001H14.545L13.84.004c-.598 0-1.305.002-2.023.014-1.134.013-2.251.042-3.38.239-1.018.178-1.955.46-2.784.839a9.087 9.087 0 0 0-4.195 3.836A10.121 10.121 0 0 0 .441 7.564a16.048 16.048 0 0 0-.438 3.22l-.001.02V192.282l-.001.879a84.636 84.636 0 0 0 .04 3.587c.041 1.178.173 2.226.403 3.197.211.902.559 1.797 1.034 2.657a8.531 8.531 0 0 0 1.847 2.289c.779.68 1.599 1.208 2.435 1.565.897.38 1.838.651 2.8.809 1.111.182 2.222.209 3.359.222.666.01 1.314.011 1.859.011z"/><path stroke="#333" stroke-width=".5" fill="none" d="M10.859 102.297c.829 0 1.5.668 1.5 1.492s-.671 1.492-1.5 1.492c-.828 0-1.5-.668-1.5-1.492s.672-1.492 1.5-1.492zM278 98.75a5.25 5.25 0 1 1-.001 10.501A5.25 5.25 0 0 1 278 98.75z"/><path stroke="#333" stroke-width=".5" fill="none" d="M278.016 99.797a4.25 4.25 0 1 1 0 8.5 4.25 4.25 0 0 1 0-8.5z"/></svg>